<svg width="32" height="33" viewBox="0 0 32 33" fill="none" xmlns="http://www.w3.org/2000/svg">
<path d="M27.9383 6.46589C27.9367 6.22922 27.8992 5.98839 27.8417 5.75839C27.4592 4.21172 26.1817 3.22922 24.5292 3.22172C22.5433 3.21339 20.5583 3.22005 18.5725 3.22005C14.1958 3.22005 9.82 3.21589 5.44334 3.22172C3.43667 3.22422 1.99334 4.64339 1.99167 6.61505C1.98667 12.5626 1.98834 18.5101 1.99417 24.4576C1.99417 24.7351 2.02417 25.0201 2.09 25.2892C2.45917 26.8109 3.73167 27.8267 5.33334 27.8326C9.14834 27.8476 12.9633 27.8376 16.7792 27.8376C16.84 27.8376 16.9017 27.8284 17.0117 27.8201C17.0117 27.7151 17.0175 27.6334 17.0108 27.5534C16.9275 26.5192 17.2283 25.5992 17.7542 24.7117C19.0025 22.6026 20.2058 20.4667 21.4433 18.3509C21.7608 17.8067 22.075 17.2784 21.9608 16.6126C21.9583 16.5959 21.975 16.5759 21.9967 16.5234C22.4942 16.6851 22.63 16.2892 22.815 15.9617C22.8608 15.8809 22.9075 15.8001 22.9542 15.7184C23.1742 15.3351 23.3942 14.9526 23.6433 14.5201H21.9792V10.5517H25.9367C25.945 10.7134 25.9517 10.8609 25.9583 10.9901C26.2892 10.8684 26.59 10.7184 26.9083 10.6517C27.2367 10.5834 27.5808 10.5976 27.935 10.5742C27.9383 10.5276 27.9442 10.4776 27.9442 10.4276C27.9442 9.10672 27.9475 7.78589 27.9383 6.46589ZM7.955 25.8209C6.985 25.8209 6.02084 25.8534 5.06084 25.8084C4.51917 25.7826 4.0375 25.2542 4.00584 24.6934C3.96584 23.9817 3.99584 23.2651 3.99584 22.5234H7.955V25.8209ZM7.95667 20.5009H4.00417V16.5426H7.95667V20.5009ZM7.96334 14.5059H4.00834V10.5509H7.96334V14.5059ZM7.96334 8.52255H3.98667V7.86089C3.98667 7.41422 3.97917 6.96755 3.98917 6.52089C4.0025 5.88755 4.45834 5.28339 5.05834 5.25089C6.01917 5.19922 6.98417 5.23672 7.96334 5.23672V8.52255ZM18.5167 17.0851C17.1842 17.8492 15.8558 18.6192 14.525 19.3876C14.1658 19.5951 13.8067 19.8042 13.4467 20.0101C12.3542 20.6342 11.3025 20.0317 11.2983 18.7784C11.295 17.8017 11.2975 16.8251 11.2975 15.8476C11.2975 14.8817 11.2958 13.9151 11.2983 12.9484C11.3017 11.6892 12.3533 11.0851 13.4433 11.7134C15.1425 12.6934 16.8408 13.6759 18.5408 14.6542C18.9967 14.9167 19.2767 15.2884 19.2875 15.8292C19.2983 16.4101 19.0058 16.8042 18.5167 17.0851ZM25.9483 8.51422H21.9667V5.23922C22.0567 5.23172 22.145 5.21755 22.2333 5.21755C22.9917 5.21589 23.75 5.21339 24.5083 5.21755C25.4092 5.22255 25.9442 5.75672 25.9475 6.65089C25.95 7.26422 25.9483 7.87672 25.9483 8.51422Z" fill="#FF782D"/>
<path d="M25.0833 14.6951C23.0475 18.2226 21.0225 21.7309 18.9858 25.2592C20.1558 25.9342 21.2917 26.5901 22.4458 27.2559C24.4867 23.7209 26.5117 20.2126 28.5433 16.6917C27.37 16.0142 26.24 15.3626 25.0833 14.6951ZM25.235 19.7301C25.0433 20.0409 24.6608 20.1001 24.3558 19.9159C24.0675 19.7409 23.9375 19.3826 24.1033 19.0759C24.4383 18.4551 24.7892 17.8417 25.1667 17.2459C25.2642 17.0926 25.4842 17.0159 25.6483 16.9042C26.1758 16.9542 26.5217 17.4551 26.2925 17.8976C25.9675 18.5234 25.6058 19.1309 25.235 19.7301Z" fill="#FF782D"/>
<path d="M27.9442 24.4117C27.9375 26.385 26.53 27.8084 24.56 27.8375C24.2809 27.8409 24.0017 27.8375 23.645 27.8375C24.0392 27.155 24.3984 26.5267 24.7675 25.905C24.8025 25.8467 24.9 25.8167 24.9742 25.79C25.6184 25.5634 25.9625 25.1134 25.94 24.4309C25.9267 24.0184 26.0334 23.6717 26.2442 23.3217C26.8042 22.3909 27.3367 21.4425 27.9217 20.4292C27.9325 20.595 27.9442 20.6809 27.9442 20.7667C27.945 21.9817 27.9475 23.1967 27.9442 24.4117Z" fill="#FF782D"/>
<path d="M29.7958 14.5101C29.6233 14.851 29.4183 15.1751 29.21 15.5385C28.0408 14.8643 26.9041 14.2085 25.7466 13.541C25.9708 13.161 26.16 12.791 26.3941 12.4535C26.7641 11.921 27.4741 11.7568 28.0583 12.0618C28.49 12.2868 28.9125 12.531 29.3233 12.7918C29.9158 13.1668 30.1125 13.886 29.7958 14.5101Z" fill="#FF782D"/>
<path d="M21.6967 28.3634C21.5008 28.5067 21.3533 28.6376 21.1858 28.7334C20.5917 29.0734 19.995 29.4092 19.3917 29.7326C18.9392 29.9759 18.4208 29.7634 18.3925 29.2834C18.3433 28.4351 18.3633 27.5826 18.3583 26.7309C18.3583 26.6617 18.3925 26.5909 18.4233 26.4734C19.5233 27.1084 20.5875 27.7234 21.6967 28.3634Z" fill="#FF782D"/>
</svg>
