<svg width="32" height="33" viewBox="0 0 32 33" fill="none" xmlns="http://www.w3.org/2000/svg">
<path d="M14.5342 2.72594C14.535 3.23511 14.5342 3.74427 14.5342 4.25427C14.5333 4.96677 14.3133 5.24761 13.6292 5.42594C12.0325 5.84177 10.5508 6.50427 9.28083 7.57094C8.73083 8.03261 8.25 8.57678 7.77667 9.13511C8.42167 8.68678 9.10167 8.40677 9.88917 8.45594C10.6867 8.50511 11.3525 8.82844 11.87 9.43594C12.6833 10.3909 12.7633 11.7518 12.0775 12.7976C11.4042 13.8251 10.1058 14.2984 8.93333 13.9393C8.21583 13.7201 7.6675 13.2818 7.295 12.6309C6.93 11.9909 6.85083 11.3026 7.0025 10.5801C6.96583 10.5718 6.92917 10.5643 6.89333 10.5568C6.715 11.1334 6.5 11.7026 6.36667 12.2893C5.96833 14.0476 6.03083 15.7934 6.5725 17.5193C6.805 18.2576 6.67583 18.5709 6.005 18.9609C5.55583 19.2218 5.1075 19.4834 4.65417 19.7368C4.04333 20.0784 3.47167 19.8701 3.22417 19.2134C2.23167 16.5743 2.115 13.8893 2.81333 11.1634C2.83917 11.0651 2.8625 10.9659 2.9 10.8134C2.70917 10.8134 2.54917 10.8109 2.38917 10.8143C2.02583 10.8209 1.66 10.8101 1.29917 10.8443C0.711667 10.8993 0.265 10.7168 0 10.1684V9.67011C0.938333 7.82011 1.8775 5.97094 2.81583 4.12177C2.85333 4.04761 2.8925 3.97427 2.93333 3.90177C3.30833 3.23844 4.07833 3.17427 4.55083 3.77761C4.96083 4.30094 5.35167 4.83927 5.75167 5.37011C5.81333 5.45094 5.87917 5.52761 5.95167 5.61761C6.85 4.66677 7.84083 3.86844 8.95833 3.22844C10.315 2.45094 11.7658 1.94011 13.3075 1.68927C14.0825 1.56261 14.5317 1.94761 14.5342 2.72594Z" fill="#FF782D"/>
<path d="M30.9408 10.841C30.4217 10.8452 29.9017 10.8218 29.3825 10.8118C29.2817 10.8093 29.1808 10.811 29.0475 10.811C29.1458 11.2602 29.2458 11.671 29.3258 12.0852C29.7875 14.4893 29.585 16.841 28.745 19.1385C28.4708 19.8885 27.9075 20.096 27.2175 19.7018C26.785 19.4543 26.355 19.2027 25.9225 18.9543C25.27 18.5785 25.1333 18.2527 25.3583 17.5368C25.9575 15.6302 25.9733 13.7143 25.4483 11.7935C25.335 11.3793 25.1683 10.9793 24.9825 10.5785C25.0967 11.3718 24.9908 12.1118 24.5525 12.781C24.1083 13.4577 23.4792 13.8718 22.6825 14.0177C21.4592 14.2418 20.2058 13.5885 19.6667 12.4543C19.1225 11.3093 19.4225 9.93517 20.3883 9.11184C21.2442 8.38267 22.7575 8.06184 24.1067 9.1685C24.1283 9.15017 24.1492 9.13184 24.1708 9.11434C23.8783 8.78517 23.6017 8.44017 23.2892 8.13184C21.8983 6.76267 20.21 5.9285 18.3417 5.43267C17.6125 5.23934 17.4042 4.981 17.4033 4.226V2.76017C17.405 1.93934 17.8508 1.55434 18.6583 1.69267C21.4042 2.16184 23.7683 3.37184 25.73 5.356C25.81 5.43684 25.8833 5.52517 25.9833 5.63684C26.3508 5.14934 26.6992 4.68767 27.0475 4.22517C27.16 4.076 27.2683 3.9235 27.385 3.77767C27.8633 3.17934 28.6508 3.22684 29 3.9035C29.9517 5.7485 30.89 7.60017 31.8167 9.45767C32.1608 10.1477 31.715 10.8343 30.9408 10.841Z" fill="#FF782D"/>
<path d="M26.0667 23.8254C24.2492 26.0079 21.9792 27.4804 19.2225 28.1896C19.1625 28.2046 19.1017 28.2204 19.0433 28.2396C19.025 28.2454 19.0117 28.2646 18.9783 28.2921C19.17 28.8621 19.3642 29.4404 19.5567 30.0179C19.8367 30.8562 19.4342 31.4112 18.5425 31.4121C16.8275 31.4137 15.1125 31.4137 13.3975 31.4121C12.4917 31.4112 12.1017 30.8579 12.3908 29.9921C12.5808 29.4237 12.7708 28.8546 12.9625 28.2796C12.425 28.1054 11.8992 27.9529 11.385 27.7654C9.175 26.9587 7.34833 25.6129 5.855 23.8037C5.40167 23.2537 5.50833 22.6429 6.12417 22.2821C6.59083 22.0096 7.05833 21.7404 7.5275 21.4729C8.10417 21.1421 8.4875 21.1971 8.93667 21.6887C10.2 23.0696 11.7083 24.0629 13.5275 24.5429C14.0942 24.6921 14.68 24.7671 15.2625 24.8446C13.55 23.9512 12.8917 22.8437 13.24 21.3954C13.5433 20.1321 14.6933 19.2404 15.9992 19.2571C17.3 19.2729 18.4233 20.1729 18.7033 21.4254C19.03 22.8846 18.3667 23.9887 16.615 24.8354C17.5442 24.7804 18.3892 24.5987 19.2092 24.2946C20.6808 23.7487 21.9183 22.8612 22.9767 21.7121C23.4592 21.1887 23.8233 21.1346 24.4333 21.4862C24.8833 21.7454 25.3342 22.0021 25.7817 22.2646C26.435 22.6479 26.5467 23.2487 26.0667 23.8254Z" fill="#FF782D"/>
</svg>
