<svg width="32" height="33" viewBox="0 0 32 33" fill="none" xmlns="http://www.w3.org/2000/svg">
<g clip-path="url(#clip0_2912_98)">
<path d="M23.9456 7.61133H0V22.6288C0.035 22.7551 0.065625 22.8838 0.106875 23.0082C0.39 23.8663 1.18813 24.447 2.11313 24.4513C3.46938 24.4576 4.82625 24.4532 6.1825 24.4532C11.3675 24.4532 16.5519 24.4538 21.7362 24.4532C22.8 24.4526 23.6238 23.8513 23.8775 22.882C23.9244 22.7032 23.95 22.5132 23.95 22.3288C23.9538 17.4795 23.9531 12.6301 23.9531 7.7807C23.9531 7.73508 23.9494 7.68883 23.9456 7.61133ZM8.31 18.5782C8.04813 18.9038 7.62688 18.9245 7.2525 18.6251C6.1325 17.7301 5.01375 16.8351 3.89563 15.9382C3.43688 15.5701 3.43562 15.092 3.89375 14.7245C5.0175 13.8226 6.1425 12.922 7.26813 12.0232C7.62875 11.7357 8.04937 11.7613 8.30812 12.0801C8.57312 12.407 8.5075 12.8282 8.13875 13.1251C7.30063 13.7982 6.46 14.4676 5.62063 15.1388C5.54938 15.1963 5.47937 15.2545 5.38562 15.332C5.76937 15.6388 6.13188 15.9301 6.49438 16.2201C7.04188 16.6582 7.59 17.0945 8.13625 17.5338C8.50625 17.832 8.57375 18.2507 8.31 18.5782ZM14.6869 10.7838C13.31 14.0032 11.9306 17.2213 10.5506 20.4388C10.4 20.7901 10.1369 20.9657 9.81563 20.9407C9.51438 20.9176 9.2375 20.7032 9.19875 20.3957C9.17625 20.2145 9.21563 20.0057 9.28813 19.8357C10.4363 17.1363 11.5944 14.4413 12.75 11.7451C12.9769 11.2157 13.1994 10.6845 13.4319 10.1576C13.5781 9.82695 13.9069 9.65945 14.23 9.73258C14.5525 9.80508 14.785 10.0976 14.7812 10.4907C14.7625 10.5495 14.7356 10.6713 14.6869 10.7838ZM20.09 15.9138C18.9488 16.832 17.805 17.7463 16.6588 18.657C16.3144 18.9313 15.8875 18.8895 15.6388 18.5732C15.3881 18.2551 15.4456 17.8363 15.7869 17.5613C16.6362 16.8776 17.4894 16.1976 18.3406 15.5163C18.4069 15.4626 18.4719 15.4076 18.5681 15.3282C18.01 14.8807 17.4762 14.4532 16.9425 14.0257C16.5594 13.7188 16.1744 13.4145 15.7937 13.1057C15.4431 12.8207 15.385 12.3957 15.6481 12.0763C15.9037 11.7657 16.3219 11.7351 16.67 12.012C17.81 12.9195 18.9475 13.8282 20.0831 14.7407C20.5062 15.0807 20.51 15.5763 20.09 15.9138Z" fill="#FF782D"/>
<path d="M23.9525 2.78742C23.95 1.4968 23.0487 0.594297 21.7594 0.594297C15.2419 0.593047 8.72375 0.593047 2.20625 0.593672C1.08812 0.594297 0.298125 1.22242 0.039375 2.30992C0.030625 2.34742 0.013125 2.38242 0 2.41805V6.20742H23.9419C23.9463 6.11805 23.9525 6.04305 23.9525 5.96805C23.9531 4.90805 23.955 3.84742 23.9525 2.78742ZM3.5525 4.80305C3.17375 4.8018 2.85625 4.4843 2.85437 4.10492C2.8525 3.71742 3.1825 3.39305 3.57 3.40117C3.94937 3.4093 4.26125 3.7318 4.25625 4.11055C4.25125 4.48992 3.93125 4.80492 3.5525 4.80305ZM6.35375 4.80305C5.975 4.79805 5.66 4.47805 5.66187 4.0993C5.66312 3.71992 5.98063 3.40242 6.35938 3.40117C6.73875 3.39992 7.05875 3.7143 7.06313 4.09367C7.06813 4.4818 6.74188 4.80805 6.35375 4.80305ZM9.16562 4.80305C8.78687 4.80117 8.47 4.48367 8.46875 4.1043C8.4675 3.71617 8.79688 3.39242 9.185 3.40117C9.56375 3.40992 9.87562 3.73242 9.87062 4.11117C9.865 4.49055 9.54437 4.80492 9.16562 4.80305ZM20.3013 4.80367C19.6319 4.80492 18.9625 4.8043 18.2925 4.8043C17.6231 4.8043 16.9537 4.80492 16.2844 4.80367C15.8094 4.80305 15.49 4.52367 15.4862 4.10805C15.4825 3.69242 15.8031 3.40117 16.2719 3.40117C17.6188 3.39992 18.965 3.39992 20.3119 3.40117C20.7825 3.40117 21.1019 3.69055 21.0981 4.10742C21.095 4.5243 20.7775 4.80305 20.3013 4.80367Z" fill="#FF782D"/>
</g>
<defs>
<clipPath id="clip0_2912_98">
<rect width="32" height="32" fill="white" transform="translate(0 0.5)"/>
</clipPath>
</defs>
</svg>
