<svg width="32" height="33" viewBox="0 0 32 33" fill="none" xmlns="http://www.w3.org/2000/svg">
<g clip-path="url(#clip0_2912_336)">
<path d="M26.7427 22.8998L26.876 23.0332C27.1787 23.3384 27.5537 23.5622 27.966 23.6837C28.3784 23.8051 28.8148 23.8203 29.2347 23.7278C29.6477 23.6411 30.0323 23.452 30.3532 23.1778C30.674 22.9035 30.9207 22.553 31.0707 22.1585C31.8068 20.2256 32.1587 18.1676 32.1067 16.0998C31.9566 12.0385 30.2861 8.18181 27.4264 5.29415C24.5666 2.40649 20.7263 0.698659 16.6667 0.509176C14.52 0.434533 12.3802 0.792896 10.375 1.5629C8.36979 2.3329 6.54014 3.49878 4.99514 4.99102C3.45014 6.48327 2.22143 8.27132 1.38225 10.2486C0.543071 12.2259 0.110612 14.3519 0.110657 16.4998C0.115597 20.7418 1.80289 24.8086 4.8024 27.8081C7.80192 30.8076 11.8687 32.4949 16.1107 32.4998C16.5613 32.4998 17.004 32.4705 17.444 32.4332C17.7779 32.405 18.0889 32.2522 18.3152 32.0052C18.5415 31.7581 18.6665 31.4349 18.6653 31.0998L18.6227 26.3158C18.6119 25.3705 18.8831 24.4433 19.4016 23.6528C19.9202 22.8623 20.6626 22.2443 21.5341 21.8777C22.4056 21.5111 23.3665 21.4125 24.2942 21.5946C25.222 21.7766 26.0744 22.2311 26.7427 22.8998ZM22.82 11.2332C23.2023 11.1317 23.6061 11.1459 23.9803 11.274C24.3546 11.402 24.6824 11.6381 24.9225 11.9525C25.1625 12.2669 25.304 12.6453 25.3289 13.0401C25.3539 13.4348 25.2613 13.8281 25.0627 14.1702C24.8642 14.5123 24.5686 14.7878 24.2135 14.962C23.8584 15.1361 23.4596 15.2011 23.0675 15.1486C22.6755 15.0961 22.3078 14.9286 22.011 14.6671C21.7142 14.4057 21.5016 14.0621 21.4 13.6798C21.3325 13.426 21.3158 13.1613 21.3506 12.9009C21.3855 12.6405 21.4713 12.3896 21.6032 12.1624C21.735 11.9351 21.9104 11.7361 22.1191 11.5767C22.3279 11.4173 22.5661 11.3006 22.82 11.2332ZM10.5133 23.0998C10.131 23.2013 9.72722 23.1871 9.35298 23.0591C8.97874 22.931 8.65087 22.6949 8.41082 22.3805C8.17077 22.0662 8.02933 21.6877 8.00437 21.2929C7.97941 20.8982 8.07206 20.5049 8.27061 20.1628C8.46915 19.8207 8.76468 19.5452 9.11981 19.371C9.47494 19.1969 9.87374 19.1319 10.2658 19.1844C10.6578 19.2369 11.0255 19.4045 11.3223 19.6659C11.6191 19.9273 11.8318 20.2709 11.9333 20.6532C12.0008 20.9071 12.0176 21.1718 11.9827 21.4321C11.9478 21.6925 11.862 21.9435 11.7302 22.1707C11.5983 22.3979 11.423 22.5969 11.2142 22.7563C11.0054 22.9157 10.7672 23.0325 10.5133 23.0998ZM10.5133 15.0998C10.131 15.2013 9.72722 15.1871 9.35298 15.0591C8.97874 14.931 8.65087 14.6949 8.41082 14.3805C8.17077 14.0662 8.02933 13.6877 8.00437 13.2929C7.97941 12.8982 8.07206 12.5049 8.27061 12.1628C8.46915 11.8207 8.76468 11.5452 9.11981 11.371C9.47494 11.1969 9.87374 11.1319 10.2658 11.1844C10.6578 11.2369 11.0255 11.4045 11.3223 11.6659C11.6191 11.9273 11.8318 12.2709 11.9333 12.6532C12.0008 12.9071 12.0176 13.1718 11.9827 13.4321C11.9478 13.6925 11.862 13.9435 11.7302 14.1707C11.5983 14.3979 11.423 14.5969 11.2142 14.7563C11.0054 14.9157 10.7672 15.0325 10.5133 15.0998ZM17.18 11.0998C16.7977 11.2013 16.3939 11.1871 16.0196 11.0591C15.6454 10.931 15.3175 10.6949 15.0775 10.3805C14.8374 10.0662 14.696 9.68768 14.671 9.29293C14.6461 8.89818 14.7387 8.5049 14.9373 8.16281C15.1358 7.82071 15.4313 7.54517 15.7865 7.37102C16.1416 7.19687 16.5404 7.13194 16.9324 7.18442C17.3245 7.23691 17.6922 7.40446 17.989 7.6659C18.2858 7.92733 18.4984 8.2709 18.6 8.65318C18.6674 8.90707 18.6842 9.17176 18.6494 9.43213C18.6145 9.69251 18.5287 9.94346 18.3968 10.1707C18.265 10.3979 18.0896 10.5969 17.8808 10.7563C17.6721 10.9157 17.4339 11.0325 17.18 11.0998Z" fill="#FF782D"/>
</g>
<defs>
<clipPath id="clip0_2912_336">
<rect width="32" height="32" fill="white" transform="translate(0 0.5)"/>
</clipPath>
</defs>
</svg>
